<svg width="110" height="110" viewBox="0 0 110 110" fill="none" xmlns="http://www.w3.org/2000/svg">
<rect width="110" height="110" fill="#B5BAB6"/>
<path d="M33.1625 47H35.1625V59.26H42.7425V61H33.1625V47ZM49.1608 61.12C48.1074 61.12 47.1608 60.8867 46.3208 60.42C45.4808 59.9533 44.8208 59.3133 44.3408 58.5C43.8741 57.6733 43.6408 56.74 43.6408 55.7C43.6408 54.66 43.8741 53.7333 44.3408 52.92C44.8208 52.0933 45.4808 51.4533 46.3208 51C47.1608 50.5333 48.1074 50.3 49.1608 50.3C50.2141 50.3 51.1541 50.5333 51.9808 51C52.8208 51.4533 53.4741 52.0933 53.9408 52.92C54.4208 53.7333 54.6608 54.66 54.6608 55.7C54.6608 56.74 54.4208 57.6733 53.9408 58.5C53.4741 59.3133 52.8208 59.9533 51.9808 60.42C51.1541 60.8867 50.2141 61.12 49.1608 61.12ZM49.1608 59.44C49.8408 59.44 50.4474 59.2867 50.9808 58.98C51.5274 58.66 51.9541 58.22 52.2608 57.66C52.5674 57.0867 52.7208 56.4333 52.7208 55.7C52.7208 54.9667 52.5674 54.32 52.2608 53.76C51.9541 53.1867 51.5274 52.7467 50.9808 52.44C50.4474 52.1333 49.8408 51.98 49.1608 51.98C48.4808 51.98 47.8674 52.1333 47.3208 52.44C46.7874 52.7467 46.3608 53.1867 46.0408 53.76C45.7341 54.32 45.5808 54.9667 45.5808 55.7C45.5808 56.4333 45.7341 57.0867 46.0408 57.66C46.3608 58.22 46.7874 58.66 47.3208 58.98C47.8674 59.2867 48.4808 59.44 49.1608 59.44ZM67.4561 50.4V59.56C67.4561 61.4133 66.9961 62.78 66.0761 63.66C65.1561 64.5533 63.7828 65 61.9561 65C60.9561 65 60.0028 64.86 59.0961 64.58C58.1894 64.3133 57.4561 63.9267 56.8961 63.42L57.8161 61.94C58.3094 62.3667 58.9161 62.7 59.6361 62.94C60.3694 63.1933 61.1228 63.32 61.8961 63.32C63.1361 63.32 64.0494 63.0267 64.6361 62.44C65.2361 61.8533 65.5361 60.96 65.5361 59.76V58.92C65.0828 59.4667 64.5228 59.88 63.8561 60.16C63.2028 60.4267 62.4894 60.56 61.7161 60.56C60.7028 60.56 59.7828 60.3467 58.9561 59.92C58.1428 59.48 57.5028 58.8733 57.0361 58.1C56.5694 57.3133 56.3361 56.42 56.3361 55.42C56.3361 54.42 56.5694 53.5333 57.0361 52.76C57.5028 51.9733 58.1428 51.3667 58.9561 50.94C59.7828 50.5133 60.7028 50.3 61.7161 50.3C62.5161 50.3 63.2561 50.4467 63.9361 50.74C64.6294 51.0333 65.1961 51.4667 65.6361 52.04V50.4H67.4561ZM61.9361 58.88C62.6294 58.88 63.2494 58.7333 63.7961 58.44C64.3561 58.1467 64.7894 57.74 65.0961 57.22C65.4161 56.6867 65.5761 56.0867 65.5761 55.42C65.5761 54.3933 65.2361 53.5667 64.5561 52.94C63.8761 52.3 63.0028 51.98 61.9361 51.98C60.8561 51.98 59.9761 52.3 59.2961 52.94C58.6161 53.5667 58.2761 54.3933 58.2761 55.42C58.2761 56.0867 58.4294 56.6867 58.7361 57.22C59.0561 57.74 59.4894 58.1467 60.0361 58.44C60.5961 58.7333 61.2294 58.88 61.9361 58.88ZM75.6647 61.12C74.6114 61.12 73.6647 60.8867 72.8247 60.42C71.9847 59.9533 71.3247 59.3133 70.8447 58.5C70.378 57.6733 70.1447 56.74 70.1447 55.7C70.1447 54.66 70.378 53.7333 70.8447 52.92C71.3247 52.0933 71.9847 51.4533 72.8247 51C73.6647 50.5333 74.6114 50.3 75.6647 50.3C76.718 50.3 77.658 50.5333 78.4847 51C79.3247 51.4533 79.978 52.0933 80.4447 52.92C80.9247 53.7333 81.1647 54.66 81.1647 55.7C81.1647 56.74 80.9247 57.6733 80.4447 58.5C79.978 59.3133 79.3247 59.9533 78.4847 60.42C77.658 60.8867 76.718 61.12 75.6647 61.12ZM75.6647 59.44C76.3447 59.44 76.9514 59.2867 77.4847 58.98C78.0314 58.66 78.458 58.22 78.7647 57.66C79.0714 57.0867 79.2247 56.4333 79.2247 55.7C79.2247 54.9667 79.0714 54.32 78.7647 53.76C78.458 53.1867 78.0314 52.7467 77.4847 52.44C76.9514 52.1333 76.3447 51.98 75.6647 51.98C74.9847 51.98 74.3714 52.1333 73.8247 52.44C73.2914 52.7467 72.8647 53.1867 72.5447 53.76C72.238 54.32 72.0847 54.9667 72.0847 55.7C72.0847 56.4333 72.238 57.0867 72.5447 57.66C72.8647 58.22 73.2914 58.66 73.8247 58.98C74.3714 59.2867 74.9847 59.44 75.6647 59.44Z" fill="#4A4843"/>
</svg>
