<svg width="110" height="110" fill="none" xmlns="http://www.w3.org/2000/svg"><path fill="#B5BAB6" d="M0 0h110v110H0z"/><path d="M33.163 47h2v12.26h7.58V61h-9.58V47zM49.16 61.12c-1.054 0-2-.233-2.84-.7a5.17 5.17 0 01-1.98-1.92c-.467-.827-.7-1.76-.7-2.8 0-1.04.233-1.967.7-2.78A4.986 4.986 0 0146.32 51c.84-.467 1.786-.7 2.84-.7 1.053 0 1.993.233 2.82.7a4.852 4.852 0 011.96 1.92c.48.813.72 1.74.72 2.78 0 1.04-.24 1.973-.72 2.8a5.027 5.027 0 01-1.96 1.92c-.827.467-1.767.7-2.82.7zm0-1.68c.68 0 1.286-.153 1.82-.46.546-.32.973-.76 1.28-1.32.306-.573.46-1.227.46-1.96 0-.733-.154-1.38-.46-1.94a3.216 3.216 0 00-1.28-1.32c-.534-.307-1.14-.46-1.82-.46a3.69 3.69 0 00-1.84.46c-.534.307-.96.747-1.28 1.32-.307.56-.46 1.207-.46 1.94 0 .733.153 1.387.46 1.96.32.56.746 1 1.28 1.32a3.69 3.69 0 001.84.46zm18.295-9.04v9.16c0 1.853-.46 3.22-1.38 4.1-.92.893-2.293 1.34-4.12 1.34-1 0-1.953-.14-2.86-.42-.907-.267-1.64-.653-2.2-1.16l.92-1.48c.493.427 1.1.76 1.82 1 .733.253 1.487.38 2.26.38 1.24 0 2.153-.293 2.74-.88.6-.587.9-1.48.9-2.68v-.84a4.322 4.322 0 01-1.68 1.24 5.61 5.61 0 01-2.14.4c-1.013 0-1.933-.213-2.76-.64a4.947 4.947 0 01-1.92-1.82c-.467-.787-.7-1.68-.7-2.68 0-1 .233-1.887.7-2.66a4.762 4.762 0 011.92-1.82c.827-.427 1.747-.64 2.76-.64.8 0 1.54.147 2.22.44a4.13 4.13 0 011.7 1.3V50.4h1.82zm-5.52 8.48c.693 0 1.313-.147 1.86-.44.56-.293.993-.7 1.3-1.22a3.43 3.43 0 00.48-1.8c0-1.027-.34-1.853-1.02-2.48-.68-.64-1.553-.96-2.62-.96-1.08 0-1.96.32-2.64.96-.68.627-1.02 1.453-1.02 2.48 0 .667.153 1.267.46 1.8.32.52.753.927 1.3 1.22.56.293 1.193.44 1.9.44zm13.729 2.24c-1.054 0-2-.233-2.84-.7a5.17 5.17 0 01-1.98-1.92c-.467-.827-.7-1.76-.7-2.8 0-1.04.233-1.967.7-2.78a4.986 4.986 0 011.98-1.92c.84-.467 1.786-.7 2.84-.7 1.053 0 1.993.233 2.82.7a4.852 4.852 0 011.96 1.92c.48.813.72 1.74.72 2.78 0 1.04-.24 1.973-.72 2.8a5.027 5.027 0 01-1.96 1.92c-.827.467-1.767.7-2.82.7zm0-1.68c.68 0 1.286-.153 1.82-.46.546-.32.973-.76 1.28-1.32.306-.573.46-1.227.46-1.96 0-.733-.154-1.38-.46-1.94a3.216 3.216 0 00-1.28-1.32c-.534-.307-1.14-.46-1.82-.46a3.69 3.69 0 00-1.84.46 3.39 3.39 0 00-1.28 1.32c-.307.56-.46 1.207-.46 1.94 0 .733.153 1.387.46 1.96.32.56.746 1 1.28 1.32a3.69 3.69 0 001.84.46z" fill="#4A4843"/></svg>